<svg xmlns="http://www.w3.org/2000/svg" viewBox="0 0 487.5 487.5"><defs><style>.a{fill:#f7df1e;}</style></defs><circle class="a" cx="243.75" cy="243.75" r="243.75"/><path d="M151.16,413.08V383.41q19.14,6.22,34.13,6.22,10.22,0,17.55-3.75t11.88-12.44q4.54-8.69,4.55-32.94V133.14h33.5V339.38q0,40.68-19.06,58.86t-53.84,18.19Q168.71,416.43,151.16,413.08Z" transform="translate(-52.97 -27.93)"/><path d="M298.23,364.75V331.56q28.54,13.08,41.71,15.8a121.17,121.17,0,0,0,24.39,2.71q20.37,0,32.16-11.08t11.8-26.56a40,40,0,0,0-6.17-21.54q-6.31-9.72-31.16-23.76l-16.34-9.41q-32.69-18.51-43.9-33.82a56.14,56.14,0,0,1-11.22-34,59.62,59.62,0,0,1,8.9-31.43,63.37,63.37,0,0,1,23.88-23q15-8.3,37.76-8.29,27.4,0,57.87,9.09V167q-26.51-10.38-36.37-12.53a91.87,91.87,0,0,0-19.67-2.16q-20.56,0-30.43,10.69t-9.88,21.85a30.34,30.34,0,0,0,4.68,15.55,44.24,44.24,0,0,0,12.57,13.56,250,250,0,0,0,21.67,13.48l17,9.57q33,18.66,44.07,34.13,11.06,15.64,11.05,35.89,0,27.6-21.07,47.86t-62.08,20.25a174.49,174.49,0,0,1-24.51-1.67Q323.05,371.76,298.23,364.75Z" transform="translate(-52.97 -27.93)"/></svg>