<svg xmlns="http://www.w3.org/2000/svg" viewBox="0 0 366.67 366.67"><defs><style>.a{fill:#f7df1e;}</style></defs><circle class="a" cx="183.33" cy="183.33" r="183.33"/><path d="M73.85,289.68V267.37q14.4,4.68,25.68,4.68a28.66,28.66,0,0,0,13.19-2.82,21,21,0,0,0,8.94-9.36q3.42-6.54,3.42-24.77v-156h25.2V234.26q0,30.59-14.34,44.27T95.45,292.2A120.06,120.06,0,0,1,73.85,289.68Z"/><path d="M184.47,253.33v-25q21.48,9.84,31.37,11.88a90.54,90.54,0,0,0,18.34,2q15.33,0,24.2-8.33a26.48,26.48,0,0,0,8.87-20,30.06,30.06,0,0,0-4.64-16.2q-4.75-7.31-23.44-17.87l-12.29-7.08q-24.58-13.92-33-25.43a42.28,42.28,0,0,1-8.43-25.56,44.8,44.8,0,0,1,6.69-23.63,47.67,47.67,0,0,1,18-17.28q11.28-6.24,28.4-6.24A152.19,152.19,0,0,1,282,81.53v23q-19.92-7.81-27.35-9.43a69.23,69.23,0,0,0-14.8-1.62q-15.45,0-22.88,8T209.54,118a22.82,22.82,0,0,0,3.52,11.7,33.42,33.42,0,0,0,9.45,10.2A188.93,188.93,0,0,0,238.81,150l12.78,7.19q24.81,14,33.14,25.68a45.61,45.61,0,0,1,8.31,27q0,20.76-15.85,36T230.5,261.13a131.74,131.74,0,0,1-18.44-1.26Q203.15,258.61,184.47,253.33Z"/></svg>