<svg xmlns="http://www.w3.org/2000/svg" viewBox="0 0 563.94 488.39"><defs><style>.a{fill:#539e43;}</style></defs><polygon class="a" points="422.96 0 140.99 0 0 244.19 140.99 488.39 422.96 488.39 563.94 244.19 422.96 0"/><path d="M572.32,641.24V611.58q19.14,6.21,34.13,6.22,10.21,0,17.55-3.75t11.88-12.44q4.54-8.7,4.55-32.94V361.31h33.49V567.55q0,40.68-19.06,58.86T601,644.59Q589.87,644.59,572.32,641.24Z" transform="translate(-436.06 -255.81)"/><path d="M719.38,592.91V559.72q28.56,13.1,41.72,15.81a121.17,121.17,0,0,0,24.39,2.71q20.37,0,32.16-11.09t11.8-26.56a40,40,0,0,0-6.17-21.53q-6.33-9.72-31.16-23.77l-16.34-9.41q-32.7-18.5-43.9-33.81a56.17,56.17,0,0,1-11.22-34,59.5,59.5,0,0,1,8.9-31.42,63.37,63.37,0,0,1,23.88-23q15-8.29,37.76-8.29,27.4,0,57.86,9.09v30.64q-26.49-10.38-36.37-12.54A92.42,92.42,0,0,0,793,380.45q-20.55,0-30.42,10.69T752.72,413a30.45,30.45,0,0,0,4.67,15.55A44.6,44.6,0,0,0,770,442.1a253,253,0,0,0,21.68,13.48l17,9.57q33,18.66,44.06,34.13,11.05,15.63,11.06,35.89,0,27.6-21.07,47.85t-62.08,20.26a176.26,176.26,0,0,1-24.52-1.67Q744.22,599.93,719.38,592.91Z" transform="translate(-436.06 -255.81)"/></svg>