<svg xmlns="http://www.w3.org/2000/svg" viewBox="0 0 401.23 347.48"><defs><style>.a{fill:#539e43;}</style></defs><polygon class="a" points="300.92 0 100.31 0 0 173.74 100.31 347.48 300.92 347.48 401.23 173.74 300.92 0"/><path d="M97,274.23V253.12q13.6,4.42,24.28,4.43a27.18,27.18,0,0,0,12.49-2.67,19.91,19.91,0,0,0,8.45-8.85q3.24-6.18,3.23-23.44V75.06h23.84V221.8q0,28.94-13.57,41.88t-38.3,12.93A113.35,113.35,0,0,1,97,274.23Z"/><path d="M201.58,239.84V216.23q20.31,9.32,29.68,11.24a86,86,0,0,0,17.35,1.93q14.49,0,22.88-7.88a25,25,0,0,0,8.4-18.9,28.46,28.46,0,0,0-4.39-15.32q-4.5-6.92-22.17-16.91l-11.63-6.7q-23.25-13.16-31.23-24.05a40,40,0,0,1-8-24.18,42.37,42.37,0,0,1,6.33-22.35,45.12,45.12,0,0,1,17-16.35q10.66-5.9,26.86-5.9a144.06,144.06,0,0,1,41.17,6.47v21.8Q275,91.75,268,90.21a65.67,65.67,0,0,0-14-1.53q-14.62,0-21.65,7.6t-7,15.55a21.72,21.72,0,0,0,3.32,11.07,31.64,31.64,0,0,0,8.95,9.64A174.54,174.54,0,0,0,253,142.13l12.08,6.81q23.48,13.27,31.35,24.29a43.12,43.12,0,0,1,7.87,25.53q0,19.63-15,34.05t-44.16,14.41A125.4,125.4,0,0,1,227.68,246Q219.25,244.83,201.58,239.84Z"/></svg>