<svg xmlns="http://www.w3.org/2000/svg" viewBox="0 0 389 389"><defs><style>.a{fill:#f7df1e;}</style></defs><circle class="a" cx="194.5" cy="194.5" r="194.5"/><path d="M116,288.69V120.3H49.15v-20H209.52v20H142.7V288.69Z"/><path d="M224.67,285.12V258.64Q247.46,269.1,258,271.25a96.37,96.37,0,0,0,19.46,2.17q16.26,0,25.67-8.85t9.41-21.19a31.9,31.9,0,0,0-4.92-17.19q-5-7.75-24.86-19l-13-7.51q-26.07-14.76-35-27a44.87,44.87,0,0,1-8.94-27.11,47.58,47.58,0,0,1,7.09-25.08,50.73,50.73,0,0,1,19.06-18.33q12-6.61,30.13-6.61,21.87,0,46.18,7.25v24.45q-21.15-8.28-29-10a73.13,73.13,0,0,0-15.69-1.72q-16.41,0-24.28,8.53t-7.88,17.43A24.21,24.21,0,0,0,255,154a35.43,35.43,0,0,0,10,10.82,201.25,201.25,0,0,0,17.29,10.76l13.55,7.63q26.34,14.9,35.16,27.24a48.38,48.38,0,0,1,8.83,28.64q0,22-16.82,38.18T273.5,293.4a139.93,139.93,0,0,1-19.56-1.34Q244.49,290.73,224.67,285.12Z"/></svg>