<svg xmlns="http://www.w3.org/2000/svg" viewBox="0 0 401.23 347.48"><defs><style>.a{fill:#539e43;}</style></defs><polygon class="a" points="300.92 0 100.31 0 0 173.74 100.31 347.48 300.92 347.48 401.23 173.74 300.92 0"/><path d="M122.08,267.93V99.53H55.26v-20H215.63v20H148.81v168.4Z"/><path d="M230.78,264.36V237.88q22.78,10.44,33.29,12.61a97,97,0,0,0,19.46,2.16q16.25,0,25.66-8.84t9.41-21.2a31.94,31.94,0,0,0-4.91-17.18q-5.06-7.76-24.87-19l-13-7.51q-26.08-14.78-35-27a44.77,44.77,0,0,1-8.95-27.11,47.47,47.47,0,0,1,7.1-25.07A50.44,50.44,0,0,1,258,81.46q12-6.61,30.12-6.62,21.87,0,46.18,7.26v24.44q-21.13-8.28-29-10a73.94,73.94,0,0,0-15.7-1.72q-16.4,0-24.28,8.53t-7.88,17.44a24.33,24.33,0,0,0,3.73,12.41,35.55,35.55,0,0,0,10,10.82,199.48,199.48,0,0,0,17.3,10.75L302,162.41q26.33,14.9,35.16,27.24A48.35,48.35,0,0,1,346,218.29q0,22-16.81,38.18t-49.54,16.16a139.74,139.74,0,0,1-19.56-1.33Q250.6,270,230.78,264.36Z"/></svg>